<?xml version="1.0" encoding="utf-8"?>
<!-- Generator: Adobe Illustrator 24.1.2, SVG Export Plug-In . SVG Version: 6.00 Build 0)  -->
<svg version="1.1" id="Camada_1" xmlns="http://www.w3.org/2000/svg" xmlns:xlink="http://www.w3.org/1999/xlink" x="0px" y="0px"
	 viewBox="0 0 351.1 89.6" enable-background="new 0 0 351.1 89.6" xml:space="preserve">
<path fill="#2BB0B0" d="M45.7,86.7C37.4,78.4,29,70,20.6,61.6c2.6-2.7,5.3-5.4,8.1-8.2c5.5,5.6,11.1,11.2,16.5,16.7
	c8.8-8.8,17.2-17.3,25.7-25.7c-2.6-2.6-5.4-5.4-8.3-8.2C57.2,41.8,51.6,47.4,46,53c-3-3-5.7-5.7-8.4-8.4
	c8.3-8.3,16.8-16.7,25.1-25.1c8.3,8.3,16.7,16.7,25,25.1C73.8,58.6,59.7,72.7,45.7,86.7z"/>
<path fill="#2BB0B0" d="M28.6,36.1c-2.6-2.6-5.4-5.3-8.1-8c8.4-8.4,16.8-16.8,25.2-25.2c2.6,2.7,5.3,5.5,8,8.2
	C45.5,19.3,37,27.7,28.6,36.1z"/>
<rect x="5.2" y="37.6" transform="matrix(0.7071 -0.7071 0.7071 0.7071 -27.7437 21.0856)" fill="#E34652" width="12.8" height="12.8"/>
<g>
	<g>
		<path fill="#11113B" d="M144.8,71.7h-16.3v-7.4c-2.4,3-4.9,5.2-7.4,6.5c-2.5,1.3-5.5,1.9-9.1,1.9c-4.8,0-8.6-1.4-11.3-4.3
			c-2.7-2.9-4.1-7.3-4.1-13.3V26h17.6v25.1c0,2.9,0.5,4.9,1.6,6.1c1.1,1.2,2.6,1.8,4.5,1.8c2.1,0,3.8-0.8,5.1-2.4
			c1.3-1.6,2-4.5,2-8.6V26h17.5V71.7z"/>
		<path fill="#11113B" d="M155.5,26h16.3v7.4c2.4-3,4.9-5.2,7.4-6.5c2.5-1.3,5.5-2,9.1-2c4.8,0,8.6,1.4,11.4,4.3
			c2.7,2.9,4.1,7.3,4.1,13.4v29h-17.6V46.6c0-2.9-0.5-4.9-1.6-6.1c-1.1-1.2-2.6-1.8-4.5-1.8c-2.1,0-3.8,0.8-5.2,2.4
			c-1.3,1.6-2,4.5-2,8.6v21.9h-17.5V26z"/>
		<path fill="#11113B" d="M214.9,26h17.5v45.7h-17.5V26z"/>
		<path fill="#11113B" d="M240.5,59l17.4-1.6c0.7,2.1,1.7,3.5,3,4.4c1.3,0.9,3,1.3,5.2,1.3c2.4,0,4.2-0.5,5.5-1.5
			c1-0.7,1.5-1.7,1.5-2.8c0-1.3-0.7-2.2-2-2.9c-0.9-0.5-3.5-1.1-7.5-1.8c-6.1-1.1-10.3-2-12.7-2.9s-4.4-2.4-6-4.6
			c-1.6-2.1-2.4-4.6-2.4-7.3c0-3,0.9-5.6,2.6-7.8c1.7-2.2,4.2-3.8,7.2-4.9s7.2-1.6,12.3-1.6c5.4,0,9.5,0.4,12.1,1.2
			c2.6,0.8,4.8,2.1,6.5,3.9c1.7,1.8,3.2,4.1,4.3,7.1l-16.6,1.6c-0.4-1.5-1.1-2.5-2.2-3.2c-1.4-0.9-3-1.4-5-1.4c-2,0-3.4,0.4-4.3,1.1
			c-0.9,0.7-1.4,1.6-1.4,2.6c0,1.1,0.6,2,1.7,2.5c1.1,0.6,3.6,1.1,7.5,1.5c5.8,0.7,10.2,1.6,13,2.8c2.8,1.2,5,2.9,6.5,5
			c1.5,2.2,2.3,4.6,2.3,7.2c0,2.6-0.8,5.2-2.4,7.7c-1.6,2.5-4.1,4.5-7.5,6c-3.4,1.5-8.1,2.2-14,2.2c-8.3,0-14.3-1.2-17.8-3.6
			C243.7,66.8,241.5,63.4,240.5,59z"/>
		<path fill="#11113B" d="M348.1,53.2H313c0.3,2.8,1.1,4.9,2.3,6.3c1.7,2,3.9,3,6.6,3c1.7,0,3.4-0.4,4.9-1.3c0.9-0.5,2-1.5,3.1-2.9
			l17.3,1.6c-2.6,4.6-5.8,7.9-9.6,9.9s-9.1,3-16,3c-6.1,0-10.8-0.9-14.3-2.6c-3.5-1.7-6.3-4.4-8.6-8.1c-2.3-3.7-3.4-8.1-3.4-13.1
			c0-7.1,2.3-12.9,6.9-17.3c4.6-4.4,10.9-6.6,19-6.6c6.5,0,11.7,1,15.5,3c3.8,2,6.7,4.8,8.6,8.6c2,3.8,3,8.6,3,14.7V53.2z
			 M330.3,44.8c-0.3-3.4-1.3-5.8-2.7-7.3c-1.5-1.5-3.4-2.2-5.8-2.2c-2.8,0-5,1.1-6.7,3.3c-1.1,1.4-1.7,3.4-2,6.2H330.3z"/>
	</g>
</g>
<rect x="214.9" y="13" fill="#E34652" width="17.5" height="8.4"/>
<g>
</g>
<g>
</g>
<g>
</g>
<g>
</g>
<g>
</g>
<g>
</g>
</svg>
